<svg width="200" height="200" viewBox="0 0 200 200" xmlns="http://www.w3.org/2000/svg">
  <!-- Background circle -->
  <circle cx="100" cy="100" r="95" fill="#60A5FA" opacity="0.15"/>

  <!-- Neural network nodes -->
  <g id="nodes">
    <!-- Input layer -->
    <circle cx="50" cy="70" r="8" fill="#60A5FA"/>
    <circle cx="50" cy="100" r="8" fill="#60A5FA"/>
    <circle cx="50" cy="130" r="8" fill="#60A5FA"/>

    <!-- Hidden layer -->
    <circle cx="100" cy="60" r="8" fill="#34D399"/>
    <circle cx="100" cy="90" r="8" fill="#34D399"/>
    <circle cx="100" cy="120" r="8" fill="#34D399"/>
    <circle cx="100" cy="140" r="8" fill="#34D399"/>

    <!-- Output layer -->
    <circle cx="150" cy="80" r="8" fill="#FBBF24"/>
    <circle cx="150" cy="110" r="8" fill="#FBBF24"/>
  </g>

  <!-- Connections (edges) -->
  <g id="edges" stroke="#D1D5DB" stroke-width="1.5" opacity="0.4">
    <!-- Input to hidden -->
    <line x1="50" y1="70" x2="100" y2="60"/>
    <line x1="50" y1="70" x2="100" y2="90"/>
    <line x1="50" y1="70" x2="100" y2="120"/>

    <line x1="50" y1="100" x2="100" y2="60"/>
    <line x1="50" y1="100" x2="100" y2="90"/>
    <line x1="50" y1="100" x2="100" y2="120"/>
    <line x1="50" y1="100" x2="100" y2="140"/>

    <line x1="50" y1="130" x2="100" y2="90"/>
    <line x1="50" y1="130" x2="100" y2="120"/>
    <line x1="50" y1="130" x2="100" y2="140"/>

    <!-- Hidden to output -->
    <line x1="100" y1="60" x2="150" y2="80"/>
    <line x1="100" y1="60" x2="150" y2="110"/>

    <line x1="100" y1="90" x2="150" y2="80"/>
    <line x1="100" y1="90" x2="150" y2="110"/>

    <line x1="100" y1="120" x2="150" y2="80"/>
    <line x1="100" y1="120" x2="150" y2="110"/>

    <line x1="100" y1="140" x2="150" y2="110"/>
  </g>

  <!-- Graduation cap -->
  <g id="graduation-cap" transform="translate(85, 15)">
    <!-- Cap board -->
    <rect x="0" y="0" width="30" height="3" fill="#F3F4F6" rx="1"/>
    <!-- Cap base -->
    <rect x="5" y="3" width="20" height="8" fill="#F3F4F6" rx="1"/>
    <!-- Tassel -->
    <line x1="15" y1="0" x2="15" y2="-8" stroke="#FBBF24" stroke-width="1.5"/>
    <circle cx="15" cy="-8" r="2" fill="#FBBF24"/>
  </g>

  <!-- Redraw nodes on top -->
  <use href="#nodes"/>
</svg>
